<?xml version="1.0" standalone="no"?>
<!DOCTYPE svg PUBLIC "-//W3C//DTD SVG 20010904//EN"
 "http://www.w3.org/TR/2001/REC-SVG-20010904/DTD/svg10.dtd">
<svg version="1.0" xmlns="http://www.w3.org/2000/svg"
 width="1119.000000pt" height="1280.000000pt" viewBox="0 0 1119.000000 1280.000000"
 preserveAspectRatio="xMidYMid meet">
<metadata>
Created by potrace 1.15, written by Peter Selinger 2001-2017
</metadata>
<g transform="translate(0.000000,1280.000000) scale(0.100000,-0.100000)"
fill="#000000" stroke="none">
<path d="M4174 12774 c5 -13 42 -207 89 -466 l15 -78 -24 0 c-19 0 -37 25
-112 158 -49 86 -106 190 -128 230 -21 40 -40 68 -42 63 -3 -9 145 -284 227
-423 l22 -36 -53 -17 c-74 -24 -179 -80 -226 -121 l-40 -34 -117 227 c-122
237 -163 308 -171 300 -3 -3 6 -24 20 -46 46 -72 258 -492 253 -498 -4 -3 -86
71 -184 164 -235 224 -282 267 -288 261 -2 -2 66 -70 153 -151 221 -206 310
-297 289 -297 -9 0 -137 56 -284 125 -147 69 -269 123 -271 120 -5 -5 171 -91
402 -196 72 -33 131 -61 133 -63 2 -2 -16 -34 -41 -72 -25 -37 -58 -98 -73
-136 -16 -37 -32 -68 -36 -68 -5 0 -61 23 -125 51 -200 87 -385 160 -396 155
-6 -2 -2 -7 9 -11 35 -13 408 -167 463 -192 32 -14 52 -29 49 -36 -5 -14 -7
-14 -276 8 -106 8 -225 14 -265 14 -67 -2 -66 -2 34 -10 58 -5 187 -16 287
-24 101 -8 189 -15 198 -15 17 0 19 -9 7 -27 -8 -13 -174 -58 -397 -108 -143
-32 -149 -34 -143 -41 6 -6 134 22 350 76 87 22 164 40 172 40 11 0 12 -8 4
-42 -5 -24 -10 -100 -11 -170 -2 -127 -2 -127 -27 -132 -14 -3 -68 -13 -120
-21 -198 -33 -420 -78 -420 -85 0 -4 17 -4 38 1 60 13 422 77 480 85 95 12 64
-16 -140 -126 -225 -120 -330 -181 -324 -187 2 -3 64 29 138 70 73 41 188 104
255 140 110 58 123 63 128 46 9 -26 -4 -42 -191 -237 -92 -95 -164 -175 -162
-177 4 -5 167 159 291 292 59 65 67 71 71 50 71 -354 211 -660 445 -972 90
-120 315 -347 429 -434 217 -164 451 -278 672 -326 110 -24 280 -30 368 -12
39 8 72 11 72 6 0 -4 -13 -84 -30 -179 -77 -448 -110 -822 -117 -1343 l-6
-398 -79 -139 -80 -139 -51 34 c-29 19 -80 44 -114 56 -35 11 -63 22 -63 24 0
2 33 56 74 122 75 122 110 183 102 183 -2 0 -45 -67 -95 -150 -51 -82 -96
-152 -101 -155 -28 -17 -19 48 45 355 5 22 4 23 -5 5 -6 -11 -25 -94 -43 -185
-45 -222 -53 -220 -92 15 -16 99 -31 170 -33 158 -2 -12 8 -87 22 -168 32
-179 32 -173 2 -168 -30 6 -185 -13 -254 -31 l-54 -14 5 202 c4 136 3 172 -3
111 -4 -49 -8 -141 -9 -202 -1 -62 -5 -113 -10 -113 -9 0 -93 230 -127 347 -9
32 -19 52 -21 45 -3 -6 25 -98 61 -204 36 -105 64 -193 62 -195 -3 -3 -71 79
-249 297 -16 19 -25 28 -21 20 11 -21 78 -108 173 -224 l82 -100 -98 -46
c-229 -110 -456 -299 -602 -503 l-33 -44 -199 -28 c-171 -23 -228 -26 -208
-12 8 6 284 133 341 158 32 13 58 27 58 31 0 7 -119 -45 -314 -136 -55 -25
-101 -45 -102 -43 -4 4 142 147 235 230 35 31 62 59 60 62 -3 2 -72 -59 -154
-135 -83 -77 -152 -140 -155 -140 -3 0 -30 19 -60 41 -30 23 -74 51 -97 62
-24 12 -43 23 -42 26 0 4 63 57 140 120 77 62 138 115 135 118 -2 3 -47 -31
-98 -74 -181 -153 -199 -166 -209 -156 -7 7 16 53 71 144 45 74 93 149 106
167 14 17 20 32 15 32 -6 0 -56 -74 -112 -165 -94 -151 -138 -202 -124 -142 3
12 19 89 35 170 16 82 32 153 35 158 4 5 1 9 -4 9 -6 0 -11 -3 -11 -6 0 -5
-46 -238 -65 -330 -5 -20 -8 -21 -47 -12 -24 5 -77 8 -118 5 l-76 -5 28 172
c25 160 33 235 24 225 -2 -2 -16 -87 -31 -189 -15 -102 -31 -191 -35 -199 -8
-15 -45 130 -76 299 -10 52 -21 99 -26 105 -10 12 -6 -16 43 -239 21 -99 37
-181 36 -183 -3 -3 -197 296 -217 335 -6 13 -14 21 -17 18 -6 -6 12 -37 130
-219 49 -76 88 -139 86 -141 -2 -1 -24 -11 -49 -20 -25 -10 -72 -35 -106 -57
-33 -21 -63 -39 -66 -39 -2 0 -49 74 -103 165 -54 91 -100 163 -102 161 -3 -2
41 -80 96 -173 56 -92 97 -169 91 -171 -10 -4 -115 80 -257 206 -46 40 -83 69
-83 64 0 -10 55 -58 215 -192 55 -45 102 -87 104 -92 5 -15 -28 -3 -364 136
-28 12 -35 13 -23 3 15 -12 129 -60 337 -143 l33 -14 -53 -57 c-29 -32 -72
-85 -97 -118 -24 -33 -46 -62 -48 -64 -2 -2 -61 32 -131 76 -189 117 -204 126
-208 121 -3 -3 41 -32 98 -66 201 -121 243 -150 225 -157 -14 -6 -325 69 -392
94 -14 6 -26 7 -26 3 0 -7 113 -40 318 -94 47 -12 81 -26 79 -32 -2 -7 -61
-14 -153 -18 -239 -11 -265 -16 -56 -11 105 3 192 3 192 0 0 -2 -22 -46 -49
-98 -57 -108 -120 -256 -163 -379 -35 -104 -98 -324 -98 -345 0 -8 -1 -15 -3
-15 -2 0 -55 51 -118 113 -63 61 -151 138 -196 170 -140 100 -328 189 -481
227 -42 11 -42 11 -28 38 8 15 62 98 119 185 58 86 102 157 98 157 -9 -1 -29
-30 -147 -212 -57 -88 -104 -155 -104 -148 0 12 77 357 86 389 5 14 4 13 -6
-1 -6 -10 -30 -101 -53 -203 l-42 -186 -128 -2 c-124 -2 -128 -1 -124 18 2 11
23 81 46 155 22 74 43 151 46 170 3 19 -8 -8 -24 -60 -89 -294 -94 -308 -102
-270 -4 19 -13 116 -19 215 -7 99 -14 182 -16 184 -7 7 -3 -88 10 -259 12
-151 12 -181 3 -169 -8 9 -155 336 -162 357 -4 13 -9 21 -12 18 -7 -7 10 -50
91 -224 36 -78 66 -146 66 -150 0 -4 -21 -16 -46 -26 -26 -10 -69 -34 -96 -52
-28 -19 -52 -34 -54 -34 -2 0 -49 90 -105 200 -56 111 -103 199 -106 197 -2
-2 40 -89 93 -191 77 -149 94 -190 84 -199 -9 -8 -11 -8 -7 -1 4 7 -67 81
-166 174 l-172 162 169 -166 c93 -91 166 -166 163 -166 -4 0 -95 43 -203 95
-109 52 -199 93 -202 90 -5 -5 233 -121 368 -180 36 -16 67 -30 69 -31 2 -2
-15 -24 -37 -49 -22 -25 -50 -70 -63 -100 -13 -30 -27 -55 -32 -55 -4 0 -93
44 -197 97 -104 53 -192 95 -194 92 -3 -2 85 -49 194 -104 110 -55 195 -101
191 -103 -5 -2 -101 13 -213 33 -282 50 -267 47 -242 36 12 -5 119 -27 239
-47 119 -21 212 -40 206 -42 -6 -2 -111 -16 -233 -32 -123 -15 -209 -28 -192
-29 17 -1 120 10 229 24 110 13 200 23 201 22 1 -1 -2 -27 -8 -57 -5 -30 -8
-99 -6 -153 l4 -99 -61 6 c-33 3 -136 7 -230 10 l-170 4 140 -9 c77 -5 183
-12 235 -15 91 -6 93 -7 60 -19 -19 -7 -125 -34 -235 -61 -110 -27 -193 -50
-185 -52 9 -1 112 22 230 52 118 30 217 53 218 51 5 -4 -87 -63 -245 -157 -67
-40 -120 -75 -118 -77 5 -4 136 73 284 166 l85 53 26 -88 c74 -243 190 -431
390 -633 140 -141 221 -204 359 -281 190 -105 350 -151 532 -151 l116 -1 7
-135 c20 -398 104 -848 225 -1204 l30 -87 -375 0 -374 0 0 -245 0 -245 53 0
53 0 66 -227 c37 -126 135 -464 218 -753 84 -289 194 -669 245 -845 l93 -320
943 4 c519 2 947 6 951 10 3 3 66 267 138 586 111 494 274 1196 339 1465 l18
75 66 3 67 3 0 244 0 245 -379 0 -378 0 29 83 c210 593 288 1423 202 2167 -16
145 -58 405 -73 456 l-9 30 132 -4 c154 -5 262 15 404 73 335 136 668 455 821
786 40 87 101 269 101 301 0 25 12 22 42 -9 22 -25 29 -52 57 -223 54 -328
151 -737 230 -964 12 -33 21 -61 21 -63 0 -1 -232 -3 -515 -3 l-515 0 0 -370
0 -370 90 0 c50 0 90 -2 90 -4 0 -2 14 -64 30 -137 53 -233 245 -1142 445
-2113 107 -516 196 -940 197 -941 4 -3 2582 -22 2586 -20 3 3 18 57 126 466
71 270 132 502 457 1734 77 292 165 625 195 740 30 116 60 225 65 242 l11 33
74 0 74 0 0 370 0 370 -514 0 -515 0 20 58 c40 114 119 404 158 579 90 406
147 829 172 1283 l12 215 151 0 c161 1 212 8 366 57 261 83 505 236 744 468
317 308 546 691 647 1085 15 61 32 109 37 108 5 -1 118 -75 251 -164 133 -89
244 -159 248 -156 8 8 14 3 -72 56 -142 87 -439 295 -427 299 6 2 107 -24 224
-57 274 -77 367 -101 392 -100 12 0 -19 11 -69 25 -270 73 -531 148 -539 155
-15 14 30 18 329 33 l290 15 -220 -4 c-121 -3 -261 -8 -310 -11 l-90 -7 3 147
c3 82 -1 182 -8 227 -6 45 -9 83 -7 85 3 3 85 -6 183 -20 99 -13 224 -30 279
-36 55 -6 112 -13 128 -15 15 -3 27 -1 27 3 0 5 -48 14 -107 21 -169 19 -497
62 -512 67 -8 2 -12 6 -10 8 2 2 81 18 174 35 277 50 475 93 475 104 0 5 -7 6
-15 3 -40 -15 -636 -128 -642 -122 -6 6 438 259 520 297 15 7 27 16 27 21 0
11 -124 -54 -374 -196 -92 -53 -172 -93 -177 -90 -5 3 -9 11 -9 18 0 24 -78
171 -119 226 -22 30 -41 57 -41 60 0 3 39 25 88 49 182 89 512 265 512 273 0
5 -51 -19 -112 -52 -62 -34 -193 -101 -292 -151 l-178 -90 231 242 c127 133
231 246 231 252 0 6 -53 -46 -117 -114 -64 -68 -173 -180 -241 -249 -100 -101
-120 -118 -109 -90 28 68 217 469 238 504 11 20 19 41 16 48 -4 13 -93 -167
-222 -448 l-70 -152 -28 22 c-81 61 -154 106 -198 122 -27 10 -49 21 -49 24 0
3 27 69 61 145 94 216 172 415 165 422 -3 3 -10 -7 -16 -23 -41 -108 -218
-531 -227 -543 -12 -16 -12 33 1 230 9 123 18 266 21 317 4 53 2 92 -3 92 -5
0 -12 -60 -15 -132 -12 -283 -30 -499 -41 -495 -9 3 -131 422 -161 552 -4 17
-9 25 -12 18 -4 -11 73 -313 126 -496 l20 -67 -57 5 c-31 3 -73 8 -92 10 -20
3 -74 0 -120 -5 -46 -5 -85 -8 -87 -7 -1 2 -14 64 -29 138 -44 230 -95 454
-106 464 -7 7 -8 4 -5 -10 25 -88 126 -588 121 -594 -5 -6 7 -25 -173 276 -89
150 -167 275 -173 279 -16 10 -17 11 161 -284 90 -150 160 -276 157 -279 -3
-4 -14 0 -23 9 -146 122 -238 200 -336 286 -65 57 -121 102 -123 99 -6 -5 182
-173 349 -310 97 -81 110 -97 82 -97 -34 0 -207 -65 -315 -119 -201 -100 -367
-221 -547 -399 -56 -55 -128 -134 -162 -176 -45 -58 -61 -72 -65 -58 -3 9 -19
74 -35 144 -85 358 -211 718 -346 989 -31 61 -54 113 -53 115 2 1 98 -1 213
-6 273 -12 315 -12 315 0 0 6 -49 10 -127 10 -71 0 -192 3 -271 7 -123 5 -144
9 -153 24 -8 16 -1 20 58 38 348 101 488 143 492 146 13 14 -11 13 -50 -1 -24
-8 -150 -46 -279 -84 -208 -60 -236 -66 -247 -53 -15 20 -24 13 242 192 114
78 203 141 197 141 -12 0 -193 -118 -365 -239 -48 -33 -89 -61 -91 -61 -2 0
-25 33 -51 73 -63 94 -129 180 -184 240 -24 26 -42 49 -40 51 2 2 42 20 89 41
243 106 439 198 435 204 -2 4 -44 -12 -92 -35 -113 -53 -430 -194 -446 -197
-32 -6 0 31 128 148 182 167 306 288 299 294 -2 3 -44 -34 -92 -81 -182 -178
-365 -339 -375 -329 -9 9 101 226 221 434 28 48 47 87 42 87 -8 0 -118 -191
-225 -393 l-57 -107 -26 20 c-61 48 -166 113 -220 137 -31 13 -59 26 -60 28
-2 2 39 75 90 162 135 225 208 357 208 373 0 7 -49 -72 -109 -176 -161 -280
-205 -353 -215 -354 -4 0 -6 7 -3 15 11 28 106 521 111 575 5 52 5 52 -4 15
-6 -22 -35 -166 -65 -320 -31 -153 -58 -281 -60 -283 -3 -3 -7 1 -9 9 -9 25
-76 519 -76 559 0 21 -5 42 -11 46 -15 9 -8 -52 36 -366 19 -129 33 -235 32
-236 -1 -1 -27 2 -57 8 -52 10 -153 6 -231 -8 l-37 -6 -12 73 c-29 180 -82
444 -91 458 -8 12 -9 9 -5 -14 3 -16 26 -140 51 -274 35 -190 42 -246 33 -253
-18 -11 -25 -1 -123 177 -113 204 -186 327 -193 321 -2 -3 18 -43 45 -88 59
-99 219 -386 228 -409 4 -10 0 -19 -10 -23 -17 -6 -142 98 -330 275 -47 45
-88 79 -91 77 -5 -6 158 -160 304 -288 l83 -73 -33 -20 c-86 -52 -147 -94
-196 -135 l-53 -45 -205 211 c-113 117 -210 212 -216 212 -5 0 85 -97 201
-216 116 -119 208 -220 205 -225 -2 -4 -130 56 -284 134 -153 78 -281 139
-284 136 -3 -3 118 -67 269 -144 151 -76 275 -142 275 -146 0 -4 -4 -10 -9
-13 -9 -6 -185 19 -444 61 l-107 17 -43 65 c-204 316 -534 612 -853 768 -54
26 -101 49 -103 50 -2 1 66 96 151 210 188 253 198 268 198 283 0 6 -47 -55
-105 -135 -82 -114 -236 -322 -262 -354 -1 -2 -5 -2 -8 1 -3 3 19 81 49 174
105 329 138 444 127 444 -4 0 -21 -51 -39 -112 -68 -234 -156 -498 -164 -490
-9 9 -31 579 -22 593 3 5 0 9 -5 9 -12 0 -13 -175 -3 -433 4 -86 5 -157 2
-157 -3 0 -50 12 -105 26 -70 18 -138 27 -225 31 l-126 6 32 201 c18 110 35
230 38 266 9 107 -10 24 -39 -171 -40 -278 -44 -297 -65 -302 -16 -4 -20 7
-35 87 -49 279 -88 466 -97 466 -6 0 -7 -7 -4 -16z m1991 -1569 c127 -20 233
-37 237 -38 4 -1 -18 -33 -48 -71 -64 -80 -142 -193 -195 -283 l-36 -63 -33
91 c-33 93 -126 288 -176 368 l-27 44 24 -6 c13 -4 128 -23 254 -42z m-662
-3858 l4 -58 -74 -66 c-40 -36 -76 -64 -78 -61 -3 3 27 63 67 133 39 71 73
124 74 119 1 -5 4 -35 7 -67z m7 -114 c0 -38 -1 -38 -70 -67 -39 -16 -73 -27
-75 -24 -4 4 134 128 142 128 2 0 3 -17 3 -37z m4 -110 c13 -134 12 -167 -6
-171 -12 -2 -26 14 -47 56 -16 32 -42 73 -56 90 l-27 32 24 9 c13 5 39 16 58
25 19 8 38 15 42 16 3 0 9 -26 12 -57z m16 -188 c0 -8 -7 -15 -15 -15 -26 0
-18 20 13 29 1 1 2 -6 2 -14z m0 -40 c0 -8 -4 -15 -9 -15 -13 0 -22 16 -14 24
11 11 23 6 23 -9z m17 -136 c6 -57 12 -107 12 -111 1 -5 -5 -8 -12 -8 -10 0
-16 25 -20 98 -3 53 -9 106 -13 116 -5 14 -3 17 7 14 9 -3 17 -37 26 -109z
m-1717 -208 c-26 -44 -63 -116 -81 -160 -19 -45 -36 -81 -39 -81 -3 1 -28 35
-57 78 -28 42 -75 103 -103 134 l-50 57 57 7 c32 4 110 15 173 24 63 10 122
18 132 19 12 1 4 -19 -32 -78z m1730 59 c0 -18 -3 -19 -20 -10 -11 6 -20 15
-20 20 0 6 9 10 20 10 13 0 20 -7 20 -20z m12 -61 c3 -16 2 -29 -1 -29 -13 0
-51 46 -51 62 0 31 47 1 52 -33z"/>
<path d="M1510 6215 c-6 -8 -77 -65 -156 -126 -129 -100 -169 -135 -131 -113
22 13 307 237 313 245 9 15 -13 10 -26 -6z"/>
</g>
</svg>
