<svg width="90" height="103" viewBox="0 0 90 103" fill="none" xmlns="http://www.w3.org/2000/svg">
<g clip-path="url(#clip0_3_187)">
<path d="M33.571 0.209221C33.6112 0.313835 33.9088 1.87493 34.2868 3.95907L34.4075 4.58672H34.2144C34.0616 4.58672 33.9168 4.38555 33.3136 3.31532C32.9195 2.62329 32.4611 1.78642 32.2841 1.46454C32.1152 1.14266 31.9624 0.917351 31.9463 0.957588C31.9222 1.03001 33.1125 3.2429 33.7721 4.36141L33.949 4.6511L33.5227 4.7879C32.9276 4.98102 32.0831 5.43165 31.705 5.76157L31.3833 6.03516L30.4423 4.20853C29.4611 2.30141 29.1313 1.73009 29.067 1.79446C29.0428 1.8186 29.1152 1.98759 29.2278 2.16462C29.5978 2.744 31.3029 6.12368 31.2627 6.17196C31.2305 6.1961 30.571 5.60063 29.7828 4.85227C27.8927 3.04977 27.5147 2.70376 27.4664 2.75204C27.4503 2.76814 27.9973 3.31532 28.697 3.96712C30.4745 5.62477 31.1903 6.35703 31.0214 6.35703C30.949 6.35703 29.9195 5.90641 28.7372 5.35117C27.5549 4.79594 26.5737 4.36141 26.5576 4.38555C26.5174 4.42579 27.9329 5.11782 29.7908 5.96274C30.3699 6.22829 30.8445 6.45361 30.8605 6.4697C30.8766 6.48579 30.7318 6.74329 30.5308 7.04906C30.3297 7.3468 30.0643 7.83766 29.9436 8.14344C29.815 8.44118 29.6863 8.69063 29.6541 8.69063C29.6139 8.69063 29.1635 8.50555 28.6487 8.28024C27.0402 7.58016 25.5522 6.99274 25.4638 7.03297C25.4155 7.04907 25.4477 7.0893 25.5361 7.12149C25.8176 7.2261 28.8176 8.46532 29.26 8.66649C29.5174 8.77914 29.6782 8.89985 29.6541 8.95618C29.6139 9.06883 29.5978 9.06883 27.4343 8.8918C26.5817 8.82742 25.6246 8.77914 25.3029 8.77914C24.764 8.79524 24.7721 8.79524 25.5764 8.85961C26.0428 8.89985 27.0804 8.98837 27.8847 9.05274C28.697 9.11711 29.4048 9.17344 29.4772 9.17344C29.6139 9.17344 29.63 9.24586 29.5335 9.39071C29.4691 9.49532 28.134 9.85743 26.3404 10.2598C25.1903 10.5173 25.142 10.5334 25.1903 10.5897C25.2386 10.638 26.268 10.4127 28.0053 9.97813C28.705 9.80109 29.3243 9.65626 29.3887 9.65626C29.4772 9.65626 29.4852 9.72063 29.4209 9.99422C29.3806 10.1873 29.3404 10.7989 29.3324 11.3622C29.3163 12.3841 29.3163 12.3841 29.1152 12.4244C29.0026 12.4485 28.5683 12.529 28.1501 12.5934C26.5576 12.8589 24.7721 13.221 24.7721 13.2774C24.7721 13.3095 24.9088 13.3095 25.0777 13.2693C25.5603 13.1647 28.4718 12.6497 28.9383 12.5853C29.7024 12.4888 29.453 12.7141 27.8123 13.5992C26.0026 14.5648 25.1581 15.0557 25.2064 15.104C25.2225 15.1281 25.7211 14.8706 26.3163 14.5407C26.9034 14.2108 27.8284 13.7038 28.3672 13.4141C29.252 12.9474 29.3565 12.9072 29.3967 13.044C29.4691 13.2532 29.3646 13.382 27.8605 14.9511C27.1206 15.7156 26.5415 16.3593 26.5576 16.3754C26.5898 16.4156 27.9007 15.0959 28.8981 14.0257C29.3726 13.5027 29.4369 13.4544 29.4691 13.6234C30.0402 16.472 31.1662 18.9343 33.0482 21.4449C33.7721 22.4106 35.5817 24.2372 36.4986 24.9373C38.2439 26.257 40.1259 27.1743 41.9034 27.5606C42.7882 27.7537 44.1554 27.802 44.8632 27.6571C45.1769 27.5927 45.4423 27.5686 45.4423 27.6088C45.4423 27.641 45.3377 28.2848 45.201 29.0492C44.5817 32.6542 44.3163 35.6638 44.26 39.8562L44.2117 43.0588L43.5764 44.1774L42.9329 45.2959L42.5227 45.0223C42.2895 44.8694 41.8793 44.6682 41.6058 44.5717C41.3243 44.4831 41.0991 44.3946 41.0991 44.3785C41.0991 44.3624 41.3646 43.9279 41.6943 43.3968C42.2975 42.4151 42.579 41.9242 42.5147 41.9242C42.4986 41.9242 42.1528 42.4634 41.7506 43.1313C41.3404 43.7911 40.9785 44.3544 40.9383 44.3785C40.7131 44.5153 40.7855 43.9923 41.3002 41.5219C41.3404 41.3449 41.3324 41.3368 41.26 41.4817C41.2117 41.5702 41.0589 42.2381 40.9142 42.9703C40.5522 44.7567 40.4879 44.7406 40.1742 42.8496C40.0455 42.053 39.9249 41.4816 39.9088 41.5782C39.8927 41.6748 39.9731 42.2783 40.0857 42.9301C40.3431 44.3705 40.3431 44.3222 40.1018 44.282C39.8605 44.2337 38.6139 44.3866 38.0589 44.5314L37.6246 44.6441L37.6648 43.0186C37.697 41.9242 37.689 41.6345 37.6407 42.1254C37.6085 42.5197 37.5764 43.26 37.5683 43.7509C37.5603 44.2498 37.5281 44.6602 37.4879 44.6602C37.4155 44.6602 36.7399 42.8094 36.4664 41.8679C36.3941 41.6104 36.3136 41.4495 36.2975 41.5058C36.2734 41.5541 36.4986 42.2944 36.7882 43.1474C37.0777 43.9923 37.3029 44.7004 37.2868 44.7165C37.2627 44.7406 36.7158 44.0808 35.2841 42.3266C35.1554 42.1737 35.0831 42.1013 35.1152 42.1656C35.2037 42.3346 35.7426 43.0347 36.5066 43.9681L37.1662 44.7728L36.378 45.143C34.5361 46.0281 32.7104 47.549 31.5361 49.1906L31.2707 49.5446L29.6702 49.7699C28.2949 49.955 27.8364 49.9792 27.9973 49.8665C28.0616 49.8182 30.2814 48.7963 30.7399 48.5951C30.9973 48.4905 31.2064 48.3778 31.2064 48.3456C31.2064 48.2893 30.2493 48.7077 28.6809 49.44C28.2386 49.6412 27.8686 49.8021 27.8605 49.786C27.8284 49.7538 29.0026 48.6031 29.7506 47.9352C30.0321 47.6858 30.2493 47.4605 30.2332 47.4363C30.2091 47.4202 29.6541 47.9111 28.9946 48.5227C28.327 49.1423 27.7721 49.6492 27.7479 49.6492C27.7238 49.6492 27.5066 49.4963 27.2654 49.3193C27.0241 49.1342 26.6702 48.9089 26.4852 48.8204C26.2922 48.7238 26.1394 48.6353 26.1474 48.6112C26.1474 48.579 26.6541 48.1525 27.2734 47.6456C27.8927 47.1466 28.3833 46.7202 28.3592 46.696C28.3431 46.6719 27.9812 46.9455 27.571 47.2915C26.1152 48.5227 25.9705 48.6273 25.89 48.5468C25.8337 48.4905 26.0187 48.1203 26.4611 47.3881C26.823 46.7926 27.2091 46.1891 27.3136 46.0442C27.4262 45.9074 27.4745 45.7867 27.4343 45.7867C27.386 45.7867 26.9839 46.3822 26.5335 47.1145C25.7774 48.3295 25.4235 48.7399 25.5361 48.2571C25.5603 48.1606 25.689 47.5409 25.8176 46.8891C25.9463 46.2293 26.075 45.658 26.0991 45.6177C26.1313 45.5775 26.1072 45.5453 26.067 45.5453C26.0187 45.5453 25.9785 45.5695 25.9785 45.5936C25.9785 45.6338 25.6085 47.5088 25.4557 48.2491C25.4155 48.41 25.3914 48.4181 25.0777 48.3456C24.8847 48.3054 24.4584 48.2813 24.1286 48.3054L23.5174 48.3456L23.7426 46.9616C23.9436 45.6741 24.008 45.0706 23.9356 45.151C23.9195 45.1671 23.8069 45.8511 23.6863 46.6719C23.5656 47.4927 23.4369 48.2088 23.4048 48.2732C23.3404 48.3939 23.0428 47.2271 22.7935 45.8672C22.7131 45.4488 22.6246 45.0706 22.5844 45.0223C22.504 44.9257 22.5361 45.151 22.9302 46.9455C23.0991 47.7421 23.2278 48.402 23.2198 48.4181C23.1957 48.4422 21.6353 46.0362 21.4745 45.7224C21.4262 45.6177 21.3619 45.5534 21.3377 45.5775C21.2895 45.6258 21.4343 45.8752 22.3833 47.3398C22.7774 47.9513 23.0911 48.4583 23.075 48.4744C23.0589 48.4824 22.882 48.5629 22.6809 48.6353C22.4798 48.7158 22.1018 48.917 21.8284 49.094C21.563 49.263 21.3217 49.4078 21.2975 49.4078C21.2814 49.4078 20.9034 48.8124 20.4691 48.0801C20.0348 47.3478 19.6648 46.7684 19.6487 46.7845C19.6246 46.8006 19.9785 47.4283 20.4209 48.1767C20.8713 48.917 21.201 49.5366 21.1528 49.5527C21.0723 49.5849 20.2278 48.9089 19.0857 47.895C18.7158 47.5731 18.4182 47.3398 18.4182 47.38C18.4182 47.4605 18.8605 47.8467 20.1474 48.925C20.5898 49.2871 20.9678 49.6251 20.9839 49.6653C21.0241 49.786 20.7587 49.6895 18.0562 48.5709C17.831 48.4744 17.7747 48.4663 17.8713 48.5468C17.9919 48.6434 18.9088 49.0296 20.5817 49.6975L20.8471 49.8102L20.4209 50.2688C20.1876 50.5263 19.8418 50.9528 19.6407 51.2184C19.4477 51.4839 19.2707 51.7173 19.2546 51.7334C19.2386 51.7495 18.764 51.4759 18.201 51.1218C16.6809 50.1803 16.5603 50.1079 16.5281 50.1481C16.504 50.1723 16.8579 50.4056 17.3163 50.6792C18.9329 51.6529 19.2707 51.8863 19.126 51.9426C19.0134 51.9909 16.512 51.3874 15.9731 51.1862C15.8605 51.1379 15.764 51.1299 15.764 51.162C15.764 51.2184 16.6729 51.4839 18.3217 51.9184C18.6997 52.015 18.9731 52.1277 18.9571 52.1759C18.941 52.2323 18.4664 52.2886 17.7265 52.3208C15.8042 52.4093 15.5951 52.4495 17.2761 52.4093C18.1206 52.3852 18.8203 52.3852 18.8203 52.4093C18.8203 52.4254 18.6434 52.7795 18.4262 53.1979C17.9678 54.067 17.4611 55.2579 17.1152 56.2477C16.8337 57.0845 16.327 58.8549 16.327 59.0238C16.327 59.0882 16.319 59.1445 16.3029 59.1445C16.2868 59.1445 15.8605 58.7341 15.3538 58.2352C14.8471 57.7444 14.1394 57.1248 13.7774 56.8673C12.6514 56.0626 11.1394 55.3464 9.90879 55.0406C9.57099 54.9521 9.57099 54.9521 9.68359 54.7349C9.74794 54.6142 10.1823 53.9463 10.6407 53.2462C11.1072 52.5541 11.4611 51.9828 11.4289 51.9828C11.3565 51.9909 11.1957 52.2242 10.2466 53.6888C9.78815 54.3969 9.41013 54.936 9.41013 54.8797C9.41013 54.7831 10.0294 52.007 10.1018 51.7495C10.142 51.6368 10.134 51.6449 10.0536 51.7575C10.0053 51.838 9.81228 52.5702 9.62729 53.391L9.28949 54.8877L8.26 54.9038C7.26268 54.9199 7.23051 54.9119 7.26268 54.759C7.27877 54.6705 7.44767 54.1072 7.63265 53.5117C7.8096 52.9163 7.9785 52.2966 8.00263 52.1438C8.02676 51.9909 7.93828 52.2081 7.8096 52.6266C7.09378 54.9924 7.05357 55.105 6.98922 54.7992C6.95705 54.6463 6.88467 53.8658 6.83641 53.0691C6.78011 52.2725 6.72381 51.6046 6.70772 51.5885C6.65142 51.5322 6.68359 52.2966 6.78815 53.6727C6.88467 54.8877 6.88467 55.1292 6.81228 55.0326C6.74794 54.9602 5.56563 52.3288 5.50933 52.1599C5.47716 52.0552 5.43694 51.9909 5.41282 52.015C5.35651 52.0713 5.49324 52.4174 6.14472 53.8175C6.43426 54.4452 6.67555 54.9924 6.67555 55.0245C6.67555 55.0567 6.50665 55.1533 6.30558 55.2338C6.09646 55.3142 5.75062 55.5074 5.53346 55.6522C5.30826 55.8051 5.11523 55.9258 5.09914 55.9258C5.08306 55.9258 4.70504 55.2016 4.25464 54.3164C3.80424 53.4232 3.42622 52.7151 3.40209 52.7312C3.38601 52.7473 3.72381 53.4474 4.15008 54.2681C4.76938 55.4671 4.90611 55.797 4.82568 55.8695C4.7533 55.9338 4.73721 55.9338 4.76938 55.8775C4.80156 55.8212 4.23051 55.2257 3.43426 54.4774L2.05088 53.1738L3.41013 54.5095C4.15812 55.2418 4.74525 55.8453 4.72113 55.8453C4.68895 55.8453 3.95705 55.4993 3.08842 55.0809C2.21174 54.6624 1.48788 54.3325 1.46375 54.3566C1.42354 54.3969 3.33775 55.3303 4.42354 55.8051C4.71308 55.9338 4.96241 56.0465 4.9785 56.0545C4.99458 56.0706 4.85786 56.2477 4.68091 56.4488C4.50397 56.65 4.27877 57.0121 4.17421 57.2535C4.06965 57.4949 3.95705 57.6961 3.91684 57.6961C3.88467 57.6961 3.16885 57.342 2.33239 56.9156C1.49593 56.4891 0.78815 56.1511 0.772065 56.1752C0.747936 56.1913 1.45571 56.5695 2.33239 57.0121C3.2171 57.4547 3.90075 57.8249 3.86858 57.8409C3.82837 57.857 3.05625 57.7363 2.15544 57.5754C-0.112654 57.1731 0.00798954 57.1972 0.209062 57.2857C0.305577 57.3259 1.16617 57.503 2.13131 57.6639C3.08842 57.8329 3.83641 57.9858 3.78815 58.0019C3.73989 58.018 2.89539 58.1306 1.91416 58.2594C0.92488 58.3801 0.233191 58.4847 0.36992 58.4927C0.506649 58.5008 1.33507 58.4123 2.21174 58.2996C3.09646 58.195 3.82032 58.1145 3.82836 58.1226C3.83641 58.1306 3.81228 58.3399 3.76402 58.5813C3.72381 58.8227 3.69968 59.3779 3.71576 59.8124L3.74794 60.6091L3.25732 60.5608C2.9919 60.5367 2.16349 60.5045 1.40745 60.4803L0.0401611 60.4481L1.16617 60.5206C1.78547 60.5608 2.63802 60.6171 3.05625 60.6413C3.78815 60.6895 3.80424 60.6976 3.53882 60.7941C3.38601 60.8505 2.53346 61.0677 1.64874 61.285C0.764022 61.5023 0.0964614 61.6874 0.160805 61.7034C0.233191 61.7115 1.06161 61.5264 2.01067 61.285C2.95973 61.0436 3.75598 60.8585 3.76402 60.8746C3.80424 60.9068 3.06429 61.3816 1.79351 62.138C1.25464 62.4599 0.828365 62.7415 0.844451 62.7576C0.884665 62.7898 1.93828 62.1702 3.12863 61.4218L3.81228 60.9953L4.02139 61.7034C4.61657 63.6588 5.54954 65.1716 7.15812 66.7971C8.28413 67.9317 8.9356 68.4387 10.0455 69.0583C11.5737 69.9032 12.8605 70.2734 14.3243 70.2734L15.2573 70.2814L15.3136 71.3677C15.4745 74.5704 16.1501 78.1915 17.1233 81.0562L17.3646 81.7563H14.3485H11.3404V83.7277V85.6992H11.7667H12.193L12.7238 87.5259C13.0214 88.5398 13.8096 91.2596 14.4772 93.5852C15.1528 95.9107 16.0375 98.9685 16.4477 100.385L17.1957 102.96L24.7801 102.928C28.9544 102.911 32.3967 102.879 32.4289 102.847C32.453 102.823 32.9597 100.699 33.5388 98.1317C34.4316 94.1565 35.7426 88.5076 36.2654 86.343L36.4101 85.7395L36.941 85.7153L37.4798 85.6912V83.7277V81.7563H34.4316H31.3914L31.6246 81.0884C33.3136 76.3166 33.941 69.6377 33.2493 63.6508C33.1206 62.484 32.7828 60.3918 32.6621 59.9814L32.5898 59.74L33.6514 59.7722C34.89 59.8124 35.7587 59.6515 36.9008 59.1848C39.5951 58.0904 42.2734 55.5234 43.504 52.8599C43.8257 52.1599 44.3163 50.6953 44.3163 50.4378C44.3163 50.2366 44.4128 50.2608 44.6541 50.5102C44.831 50.7114 44.8873 50.9287 45.1125 52.3047C45.5469 54.9441 46.327 58.2352 46.9624 60.0619C47.0589 60.3274 47.1313 60.5527 47.1313 60.5688C47.1313 60.5769 45.2654 60.593 42.9892 60.593H38.8471V63.5703V66.5477H39.571C39.9731 66.5477 40.2949 66.5638 40.2949 66.5799C40.2949 66.5959 40.4075 67.0949 40.5361 67.6823C40.9624 69.5572 42.5066 76.8718 44.1152 84.6853C44.9758 88.8375 45.6916 92.2494 45.6997 92.2574C45.7318 92.2816 66.4664 92.4345 66.4986 92.4184C66.5227 92.3942 66.6434 91.9597 67.512 88.6685C68.0831 86.4959 68.5737 84.629 71.1876 74.7152C71.8069 72.3656 72.5147 69.6859 72.756 68.7606C72.9973 67.8271 73.2386 66.95 73.2788 66.8132L73.3672 66.5477H73.9624H74.5576V63.5703V60.593H70.4235H66.2814L66.4423 60.1263C66.764 59.2089 67.3994 56.8753 67.7131 55.4671C68.4369 52.2001 68.8954 48.7963 69.0965 45.143L69.193 43.4129H70.4074C71.7024 43.4049 72.1125 43.3485 73.3512 42.9542C75.4503 42.2863 77.4128 41.0552 79.3351 39.1883C81.8847 36.7099 83.7265 33.6279 84.5388 30.4574C84.6595 29.9666 84.7962 29.5803 84.8364 29.5884C84.8766 29.5964 85.7855 30.1919 86.8552 30.9081C87.9249 31.6242 88.8176 32.1875 88.8498 32.1634C88.9142 32.099 88.9624 32.1392 88.2707 31.7127C87.1286 31.0127 84.7399 29.3389 84.8364 29.3067C84.8847 29.2906 85.697 29.4999 86.638 29.7654C88.8418 30.385 89.5898 30.5781 89.7908 30.5701C89.8873 30.5701 89.638 30.4816 89.2359 30.3689C87.0643 29.7815 84.9651 29.178 84.9007 29.1217C84.7801 29.009 85.142 28.9768 87.5469 28.8561L89.8793 28.7354L88.1099 28.7676C87.1367 28.7917 86.0107 28.832 85.6166 28.8561L84.8927 28.9124L84.9168 27.7295C84.941 27.0697 84.9088 26.265 84.8525 25.9029C84.8042 25.5408 84.7801 25.235 84.7962 25.2189C84.8203 25.1948 85.4798 25.2672 86.268 25.3799C87.0643 25.4845 88.0696 25.6213 88.512 25.6695C88.9544 25.7178 89.4128 25.7742 89.5415 25.7902C89.6621 25.8144 89.7587 25.7983 89.7587 25.7661C89.7587 25.7259 89.3726 25.6534 88.8981 25.5971C87.5388 25.4442 84.9007 25.0982 84.7801 25.058C84.7158 25.0419 84.6836 25.0097 84.6997 24.9936C84.7158 24.9775 85.3512 24.8488 86.0991 24.712C88.327 24.3096 89.9195 23.9636 89.9195 23.8751C89.9195 23.8349 89.8632 23.8268 89.7989 23.8509C89.4772 23.9716 84.6836 24.8809 84.6353 24.8327C84.5871 24.7844 88.1581 22.7485 88.8176 22.4427C88.9383 22.3864 89.0348 22.314 89.0348 22.2738C89.0348 22.1852 88.0375 22.7083 86.0268 23.8509C85.2868 24.2774 84.6434 24.5993 84.6032 24.5752C84.563 24.551 84.5308 24.4866 84.5308 24.4303C84.5308 24.2372 83.9034 23.0543 83.5737 22.6117C83.3967 22.3703 83.2439 22.1531 83.2439 22.1289C83.2439 22.1048 83.5576 21.9277 83.9517 21.7346C85.4155 21.0184 88.0697 19.6022 88.0697 19.5378C88.0697 19.4976 87.6595 19.6907 87.1688 19.9563C86.6702 20.2299 85.6166 20.769 84.8203 21.1713L83.3887 21.8956L85.2466 19.9482C86.268 18.878 87.1045 17.9687 87.1045 17.9204C87.1045 17.8721 86.6782 18.2906 86.1635 18.8377C85.6487 19.3849 84.7721 20.2862 84.2251 20.8414C83.4209 21.6542 83.26 21.7909 83.3485 21.5656C83.5737 21.0184 85.0938 17.7916 85.2627 17.51C85.3512 17.3491 85.4155 17.1801 85.3914 17.1238C85.3592 17.0191 84.6434 18.4676 83.6058 20.7288L83.0428 21.9519L82.8176 21.7748C82.1662 21.284 81.579 20.9219 81.2251 20.7931C81.008 20.7127 80.831 20.6242 80.831 20.6C80.831 20.5759 81.0482 20.0448 81.3217 19.4332C82.0777 17.6951 82.705 16.0938 82.6487 16.0374C82.6246 16.0133 82.5683 16.0938 82.5201 16.2225C82.1903 17.0916 80.7667 20.4954 80.6943 20.592C80.5978 20.7207 80.5978 20.3264 80.7024 18.7412C80.7747 17.7514 80.8471 16.6007 80.8713 16.1903C80.9034 15.7638 80.8873 15.45 80.8471 15.45C80.8069 15.45 80.7506 15.9328 80.7265 16.5122C80.63 18.7895 80.4852 20.5276 80.3967 20.4954C80.3243 20.4713 79.3431 17.0996 79.1018 16.0535C79.0696 15.9167 79.0294 15.8523 79.0053 15.9087C78.9731 15.9972 79.5924 18.4274 80.0187 19.8999L80.1796 20.4391L79.7211 20.3988C79.4718 20.3747 79.134 20.3345 78.9812 20.3184C78.8203 20.2942 78.386 20.3184 78.016 20.3586C77.6461 20.3988 77.3324 20.423 77.3163 20.4149C77.3083 20.3988 77.2037 19.8999 77.0831 19.3045C76.7292 17.4537 76.319 15.6512 76.2305 15.5707C76.1742 15.5144 76.1662 15.5385 76.1903 15.6512C76.3914 16.3593 77.2037 20.3827 77.1635 20.431C77.1233 20.4793 77.2198 20.6322 75.7721 18.2101C75.0562 17.0031 74.4289 15.9972 74.3806 15.965C74.252 15.8845 74.2439 15.8765 75.6756 18.2503C76.3994 19.4574 76.9624 20.4713 76.9383 20.4954C76.9142 20.5276 76.8257 20.4954 76.7533 20.423C75.579 19.4413 74.8391 18.8136 74.0509 18.1216C73.5281 17.6629 73.0777 17.3008 73.0616 17.3249C73.0134 17.3652 74.5254 18.717 75.8686 19.8195C76.6487 20.4713 76.7533 20.6 76.5281 20.6C76.2546 20.6 74.8632 21.1231 73.9946 21.5576C72.378 22.3623 71.0428 23.3359 69.5951 24.7683C69.1447 25.2109 68.5656 25.8466 68.2922 26.1845C67.9302 26.6513 67.8016 26.7639 67.7694 26.6513C67.7453 26.5788 67.6166 26.0558 67.4879 25.4925C66.8042 22.6117 65.7908 19.7149 64.705 17.5341C64.4557 17.0433 64.2707 16.6249 64.2788 16.6088C64.2949 16.6007 65.067 16.6168 65.9919 16.657C68.1876 16.7536 68.5254 16.7536 68.5254 16.657C68.5254 16.6088 68.1313 16.5766 67.504 16.5766C66.9329 16.5766 65.9597 16.5524 65.3243 16.5202C64.3351 16.48 64.1662 16.4478 64.0938 16.3271C64.0294 16.1984 64.0857 16.1662 64.5603 16.0213C67.3592 15.2086 68.4852 14.8706 68.5174 14.8465C68.6219 14.7338 68.4289 14.7419 68.1152 14.8545C67.9222 14.9189 66.9088 15.2247 65.8713 15.5305C64.1983 16.0133 63.9731 16.0616 63.8847 15.957C63.764 15.796 63.6916 15.8523 65.831 14.412C66.7479 13.7843 67.4638 13.2774 67.4155 13.2774C67.319 13.2774 65.8632 14.2269 64.4798 15.2006C64.0938 15.4661 63.764 15.6914 63.7479 15.6914C63.7319 15.6914 63.5469 15.4259 63.3377 15.104C62.831 14.3476 62.3002 13.6556 61.8579 13.1727C61.6648 12.9635 61.5201 12.7784 61.5361 12.7624C61.5522 12.7463 61.8739 12.6014 62.252 12.4324C64.2064 11.5795 65.7828 10.8391 65.7506 10.7909C65.7345 10.7587 65.3967 10.8874 65.0107 11.0725C64.1018 11.499 61.5522 12.6336 61.4235 12.6577C61.1662 12.706 61.4235 12.4083 62.453 11.4668C63.9168 10.123 64.9142 9.1493 64.8579 9.10102C64.8418 9.07688 64.504 9.37462 64.1179 9.75282C62.6541 11.1852 61.1823 12.4807 61.1018 12.4002C61.0294 12.3278 61.9142 10.5816 62.8793 8.9079C63.1045 8.52164 63.2573 8.20782 63.2171 8.20782C63.1528 8.20782 62.268 9.74477 61.4075 11.3702L60.949 12.2313L60.7399 12.0703C60.2493 11.6841 59.4048 11.161 58.9705 10.9679C58.7211 10.8633 58.4959 10.7587 58.4879 10.7426C58.4718 10.7265 58.8016 10.1391 59.2117 9.439C60.2975 7.62845 60.8847 6.56625 60.8847 6.43751C60.8847 6.38117 60.4906 7.01688 60.008 7.85375C58.7131 10.1069 58.3592 10.6943 58.2788 10.7023C58.2466 10.7023 58.2305 10.646 58.2546 10.5816C58.3431 10.3563 59.1072 6.38922 59.1474 5.95469C59.1876 5.53625 59.1876 5.53625 59.1152 5.83399C59.067 6.01102 58.8337 7.16977 58.5924 8.40899C58.3431 9.64016 58.126 10.6702 58.1099 10.6863C58.0857 10.7104 58.0536 10.6782 58.0375 10.6138C57.9651 10.4127 57.4262 6.43751 57.4262 6.11563C57.4262 5.94665 57.386 5.77766 57.3377 5.74548C57.2171 5.67306 57.2734 6.16391 57.6273 8.69063C57.7801 9.72868 57.8927 10.5816 57.8847 10.5897C57.8766 10.5977 57.6675 10.5736 57.4262 10.5253C57.008 10.4449 56.1957 10.477 55.5683 10.5897L55.2707 10.638L55.1742 10.0506C54.941 8.60212 54.5147 6.47774 54.4423 6.36508C54.378 6.26852 54.3699 6.29266 54.4021 6.47774C54.4262 6.60649 54.6112 7.60431 54.8123 8.68259C55.0938 10.2115 55.1501 10.6621 55.0777 10.7184C54.9329 10.807 54.8766 10.7265 54.0884 9.29414C53.1796 7.65258 52.5924 6.66282 52.5361 6.71111C52.5201 6.73524 52.6809 7.05711 52.8981 7.41923C53.3726 8.21587 54.6595 10.5253 54.7318 10.7104C54.764 10.7909 54.7318 10.8633 54.6514 10.8955C54.5147 10.9438 53.5093 10.1069 51.9973 8.68259C51.6193 8.32048 51.2895 8.04688 51.2654 8.06297C51.2251 8.11126 52.5361 9.35047 53.7104 10.3805L54.378 10.9679L54.1125 11.1288C53.4209 11.5473 52.9302 11.8852 52.5361 12.2152L52.1099 12.5773L50.4611 10.8794C49.5522 9.9379 48.7721 9.17344 48.7238 9.17344C48.6836 9.17344 49.4075 9.95399 50.3404 10.9116C51.2734 11.8691 52.0134 12.6819 51.9892 12.7221C51.9731 12.7543 50.9436 12.2715 49.705 11.6438C48.4745 11.0162 47.445 10.5253 47.4209 10.5495C47.3967 10.5736 48.3699 11.0886 49.5844 11.7082C50.7989 12.3198 51.7962 12.8509 51.7962 12.883C51.7962 12.9152 51.764 12.9635 51.7238 12.9877C51.6514 13.0359 50.2359 12.8348 48.1528 12.4968L47.2922 12.36L46.9463 11.837C45.3056 9.29414 42.6514 6.91228 40.0857 5.65696C39.6514 5.44774 39.2734 5.26266 39.2573 5.25462C39.2412 5.24657 39.7882 4.48212 40.4718 3.56477C41.9839 1.52892 42.0643 1.4082 42.0643 1.28751C42.0643 1.23922 41.6863 1.73008 41.2198 2.37383C40.5603 3.29118 39.3217 4.96493 39.1125 5.22243C39.1045 5.23853 39.0723 5.23853 39.0482 5.21439C39.0241 5.19024 39.201 4.56258 39.4423 3.81422C40.2868 1.16681 40.5522 0.241409 40.4638 0.241409C40.4316 0.241409 40.2949 0.651802 40.1501 1.14266C39.6032 3.02563 38.8954 5.15001 38.831 5.08563C38.7587 5.01321 38.5817 0.426491 38.6541 0.313835C38.6782 0.273605 38.6541 0.241409 38.6139 0.241409C38.5174 0.241409 38.5093 1.64962 38.5898 3.72571C38.6219 4.41774 38.63 4.98907 38.6058 4.98907C38.5817 4.98907 38.2037 4.89251 37.7613 4.77985C37.1983 4.63501 36.6514 4.56258 35.9517 4.5304L34.9383 4.48212L35.1957 2.86469C35.3404 1.97954 35.4772 1.01391 35.5013 0.72422C35.5737 -0.136795 35.4209 0.531097 35.1876 2.10024C34.8659 4.33727 34.8337 4.49017 34.6648 4.5304C34.5361 4.56258 34.504 4.47407 34.3833 3.83031C33.9892 1.58524 33.6755 0.0804749 33.6032 0.0804749C33.5549 0.0804749 33.5469 0.136803 33.571 0.209221ZM49.5844 12.8348C50.6058 12.9957 51.4584 13.1325 51.4906 13.1406C51.5227 13.1486 51.3458 13.4061 51.1045 13.7119C50.5898 14.3556 49.9624 15.2649 49.5361 15.9892L49.2466 16.4961L48.9812 15.7638C48.7158 15.0155 47.9678 13.4463 47.5656 12.8026L47.3485 12.4485L47.5415 12.4968C47.6461 12.529 48.571 12.6819 49.5844 12.8348ZM44.26 43.8796L44.2922 44.3463L43.697 44.8774C43.3753 45.1671 43.0857 45.3924 43.0697 45.3683C43.0455 45.3442 43.2868 44.8613 43.6085 44.2981C43.9222 43.7267 44.1957 43.3002 44.2037 43.3405C44.2117 43.3807 44.2359 43.6221 44.26 43.8796ZM44.3163 44.797C44.3163 45.1027 44.3083 45.1027 43.7533 45.3361C43.4396 45.4649 43.1662 45.5534 43.1501 45.5292C43.1179 45.497 44.2278 44.4992 44.2922 44.4992C44.3083 44.4992 44.3163 44.636 44.3163 44.797ZM44.3485 45.6821C44.453 46.7604 44.445 47.0259 44.3002 47.0581C44.2037 47.0742 44.0911 46.9455 43.9222 46.6075C43.7935 46.35 43.5844 46.0201 43.4718 45.8833L43.2546 45.6258L43.4477 45.5534C43.5522 45.5131 43.7613 45.4246 43.9142 45.3522C44.067 45.2878 44.2198 45.2315 44.252 45.2234C44.2761 45.2234 44.3243 45.4327 44.3485 45.6821ZM44.4772 47.1949C44.4772 47.2593 44.4209 47.3156 44.3565 47.3156C44.1474 47.3156 44.2117 47.1547 44.4611 47.0823C44.4691 47.0742 44.4772 47.1306 44.4772 47.1949ZM44.4772 47.5168C44.4772 47.5812 44.445 47.6375 44.4048 47.6375C44.3002 47.6375 44.2278 47.5088 44.2922 47.4444C44.3806 47.3559 44.4772 47.3961 44.4772 47.5168ZM44.6139 48.6112C44.6621 49.0699 44.7104 49.4722 44.7104 49.5044C44.7184 49.5446 44.6702 49.5688 44.6139 49.5688C44.5335 49.5688 44.4852 49.3676 44.453 48.7802C44.4289 48.3537 44.3806 47.9272 44.3485 47.8467C44.3083 47.7341 44.3243 47.7099 44.4048 47.7341C44.4772 47.7582 44.5415 48.0318 44.6139 48.6112ZM30.8042 50.2849C30.5951 50.639 30.2975 51.2184 30.1528 51.5724C29.9999 51.9345 29.8632 52.2242 29.8391 52.2242C29.815 52.2162 29.6139 51.9426 29.3806 51.5966C29.1554 51.2586 28.7774 50.7677 28.5522 50.5183L28.1501 50.0596L28.6085 50.0033C28.8659 49.9711 29.4932 49.8826 29.9999 49.8102C30.5067 49.7297 30.9812 49.6653 31.0616 49.6573C31.1581 49.6492 31.0938 49.8102 30.8042 50.2849ZM44.7184 49.8102C44.7184 49.955 44.6943 49.9631 44.5576 49.8906C44.4691 49.8424 44.3967 49.7699 44.3967 49.7297C44.3967 49.6814 44.4691 49.6492 44.5576 49.6492C44.6621 49.6492 44.7184 49.7056 44.7184 49.8102ZM44.815 50.301C44.8391 50.4298 44.831 50.5344 44.8069 50.5344C44.7024 50.5344 44.3967 50.1642 44.3967 50.0355C44.3967 49.786 44.7747 50.0274 44.815 50.301Z" fill="#669D44"/>
<path d="M12.1447 52.9887C12.0964 53.0531 11.5254 53.5118 10.89 54.0026C9.85246 54.8073 9.53075 55.0889 9.83638 54.9119C10.0133 54.8073 12.3055 53.0048 12.3538 52.9404C12.4262 52.8197 12.2492 52.86 12.1447 52.9887Z" fill="black"/>
</g>
<defs>
<clipPath id="clip0_3_187">
<rect width="90" height="103" fill="white"/>
</clipPath>
</defs>
</svg>
